<svg xmlns="http://www.w3.org/2000/svg" width="122.404" height="190.233" viewBox="0 0 122.404 190.233"><defs><style>.a{fill:#f7f7f7;}.b{fill:#f7abab;}.c{fill:#3a464d;}.d{fill:#cac4cb;}.e{fill:#d33030;}</style></defs><g transform="translate(-143.833 -361.301)"><path class="a" d="M315.784-540.093v164.6a12.855,12.855,0,0,1-12.818,12.818H206.2A12.855,12.855,0,0,1,193.38-375.5v-164.6A12.855,12.855,0,0,1,206.2-552.911h96.769a12.855,12.855,0,0,1,12.818,12.818" transform="translate(-49.547 914.212)"/><path class="b" d="M317.409-505.348v141.52a6.908,6.908,0,0,1-6.908,6.908H213.249a6.908,6.908,0,0,1-6.908-6.908v-141.52a6.909,6.909,0,0,1,6.908-6.908H310.5a6.909,6.909,0,0,1,6.908,6.908" transform="translate(-56.84 891.336)"/><path class="c" d="M320.848-531.073H294.609a1.943,1.943,0,0,1-1.943-1.943,1.944,1.944,0,0,1,1.943-1.944h26.238a1.944,1.944,0,0,1,1.944,1.944,1.944,1.944,0,0,1-1.944,1.943" transform="translate(-105.415 904.111)"/><path class="c" d="M369-533.016a1.943,1.943,0,0,1-1.943,1.943,1.944,1.944,0,0,1-1.944-1.943,1.944,1.944,0,0,1,1.944-1.944A1.944,1.944,0,0,1,369-533.016" transform="translate(-146.179 904.111)"/><path class="d" d="M331.661-143.908a5.831,5.831,0,0,1-5.831,5.831A5.831,5.831,0,0,1,320-143.908a5.831,5.831,0,0,1,5.831-5.831,5.831,5.831,0,0,1,5.831,5.831" transform="translate(-120.795 687.349)"/><path class="e" d="M331.285-144.283h-.292a5.52,5.52,0,0,1-1.622,3.916,5.521,5.521,0,0,1-3.917,1.623,5.519,5.519,0,0,1-3.917-1.623,5.518,5.518,0,0,1-1.623-3.916,5.519,5.519,0,0,1,1.623-3.917,5.519,5.519,0,0,1,3.917-1.623,5.521,5.521,0,0,1,3.917,1.623,5.521,5.521,0,0,1,1.622,3.917h.583a6.122,6.122,0,0,0-6.122-6.122,6.122,6.122,0,0,0-6.122,6.122,6.122,6.122,0,0,0,6.122,6.122,6.122,6.122,0,0,0,6.122-6.122h-.292" transform="translate(-120.42 687.724)"/></g></svg>